<svg xmlns="http://www.w3.org/2000/svg" width="512" height="512" fill="none" viewBox="0 0 512 512"><path fill="#fff" d="M0 0h512v512H0z"/><g transform="rotate(15 356.58 225.974)scale(9.37107)"><path stroke="#1f2937" stroke-linecap="round" stroke-width="5" d="M32 32c6-10 8-15 0-22M32 32c5.66 10.2 8.99 14.43 19.05 11M32 32c-11.66-.2-16.99.57-19.05 11" class="route"/><path fill="#00cdea" d="M32 23a15.59 15.59 0 0 1 7.79 13.5 15.59 15.59 0 0 1-15.58 0A15.59 15.59 0 0 1 32 23" class="hub"/><circle cx="32" cy="10" r="5.5" fill="#1f2937" class="node"/><circle cx="51.05" cy="43" r="5.5" fill="#1f2937" class="node"/><circle cx="12.95" cy="43" r="5.5" fill="#1f2937" class="node"/></g></svg>